<svg width="551" height="64" viewBox="0 0 551 64" fill="none" xmlns="http://www.w3.org/2000/svg">
<path d="M381.934 1.42222H386.231V19.8321H380.899C379.148 11.8519 374.452 6.16296 365.698 6.16296C358.853 6.16296 356.068 7.90124 356.068 12.721C356.068 23.7037 388.937 15.4864 388.937 35.9506C388.937 47.5654 379.785 51.358 369.518 51.358C364.026 51.358 358.455 48.9876 354.158 45.5901L352.566 49.9358H347.552V30.1037H353.043C354.078 39.9012 360.127 45.1951 370.553 45.1951C376.999 45.1951 380.103 42.1926 380.103 38.716C380.103 26.2321 347.233 35.6346 347.233 14.6963C347.233 4.34568 356.625 0 365.538 0C371.11 0 375.885 2.52839 379.546 5.1358L381.934 1.42222ZM389.096 20.4642V15.8815C396.578 15.4074 398.567 8.77037 399.204 2.05433H403.74V15.6444H413.45V20.4642H403.979V42.0346C403.979 43.5358 404.775 44.484 406.765 44.484C409.073 44.484 409.948 43.2198 409.948 40.2963V33.8173H414.803V39.9802C414.803 47.6444 410.505 51.042 404.695 51.042C399.204 51.042 395.225 48.7506 395.225 42.9037V20.5432H389.096V20.4642ZM456.825 37.1358V39.3481C456.825 47.5654 453.483 50.963 447.354 50.963C443.693 50.963 440.51 49.4617 439.873 45.5111C437.167 49.6198 432.392 50.963 427.776 50.963C422.046 50.963 417.509 48.2765 417.509 41.6395C417.509 27.4173 439.634 34.2914 439.634 24.0198C439.634 19.358 435.655 18.4889 431.755 18.4889C429.686 18.4889 426.264 19.121 424.911 20.9383C427.617 20.5432 429.766 21.7284 429.766 24.7309C429.766 28.0494 427.457 29.0765 424.592 29.0765C421.409 29.0765 419.26 26.6272 419.26 23.6247C419.26 16.1975 428.253 14.5383 434.063 14.5383C444.012 14.5383 448.309 18.963 448.309 25.1259V43.0617C448.309 44.642 448.946 45.5111 450.06 45.5111C451.175 45.5111 452.05 44.484 452.05 39.9802V37.2148H456.825V37.1358ZM439.634 31.842L431.835 35.3185C429.686 36.2667 427.378 37.4518 427.378 40.8494C427.378 43.9309 428.81 45.4321 431.835 45.4321C436.849 45.4321 439.634 41.1654 439.634 36.5037V31.842ZM453.721 20.4642V15.8815C461.203 15.4074 463.192 8.77037 463.829 2.05433H468.365V15.6444H478.075V20.4642H468.604V42.0346C468.604 43.5358 469.4 44.484 471.39 44.484C473.698 44.484 474.573 43.2198 474.573 40.2963V33.8173H479.428V39.9802C479.428 47.6444 475.13 51.042 469.32 51.042C463.829 51.042 459.85 48.7506 459.85 42.9037V20.5432H453.721V20.4642ZM491.685 33.6593C491.446 39.3482 493.197 45.5111 500.121 45.5111C505.453 45.5111 508.08 42.8247 509.035 37.7679H515.163C514.208 46.1432 509.114 51.042 499.325 51.042C487.864 51.042 481.895 44.642 481.895 32.7901C481.895 22.1235 488.819 14.5383 499.007 14.5383C511.104 14.5383 516.197 25.284 515.402 33.6593H491.685ZM505.374 28.8395C505.453 24.2568 503.941 19.6741 498.768 19.6741C493.754 19.6741 491.923 24.1778 491.685 28.8395H505.374ZM523.599 36.5037C525.111 42.9037 529.568 46.0642 536.015 46.0642C538.561 46.0642 541.745 44.642 541.745 41.6395C541.745 34.4494 518.505 38.558 518.505 25.442C518.505 18.1728 525.509 14.4593 531.956 14.4593C535.856 14.4593 539.596 15.9605 542.78 18.0148L544.292 15.5654H548.351V27.8914H543.575C541.825 22.5185 538.323 19.8321 532.672 19.8321C530.205 19.8321 527.101 20.8593 527.101 23.7827C527.101 29.4716 550.34 26.7852 550.34 40.1383C550.34 47.8025 543.814 50.963 536.89 50.963C532.433 50.963 528.056 50.2519 524.554 47.2494L523.042 49.8568H518.187V36.5037H523.599Z" fill="#B31942"/>
<path d="M156.745 40.6124C156.745 42.3506 158.496 43.0617 160.087 43.0617H164.624V48.5136H141.544V43.0617H145.921C148.309 43.0617 149.104 42.3506 149.104 40.6124V7.90123C149.104 6.16296 147.911 5.45185 146.239 5.45185H141.544V0H164.704L174.652 31.684H174.811L186.033 0H208.317V5.45185H203.383C201.712 5.45185 200.518 6.16296 200.518 7.90123V39.5852C200.518 41.9556 201.632 43.0617 203.701 43.0617H208.317V48.5136H182.69V43.0617H187.545C189.535 43.0617 190.729 42.0346 190.729 40.6124V7.34815H190.569L176.482 48.5136H170.354L156.904 7.34815H156.745V40.6124ZM248.748 35.7926V38.0049C248.748 46.2222 245.405 49.6198 239.277 49.6198C235.616 49.6198 232.432 48.1185 231.796 44.1679C229.09 48.2766 224.314 49.6198 219.698 49.6198C213.968 49.6198 209.432 46.9333 209.432 40.2963C209.432 26.0741 231.557 32.9482 231.557 22.6765C231.557 18.0148 227.578 17.1457 223.678 17.1457C221.608 17.1457 218.186 17.7778 216.833 19.5951C219.539 19.2 221.688 20.3852 221.688 23.3877C221.688 26.7062 219.38 27.7333 216.515 27.7333C213.331 27.7333 211.183 25.284 211.183 22.2815C211.183 14.8543 220.176 13.1951 225.986 13.1951C235.934 13.1951 240.232 17.6198 240.232 23.7827V41.7185C240.232 43.2988 240.869 44.1679 241.983 44.1679C243.097 44.1679 243.973 43.1407 243.973 38.637V35.7926H248.748ZM231.557 30.4198L223.757 33.8963C221.609 34.8444 219.3 36.0296 219.3 39.4272C219.3 42.5086 220.733 44.0099 223.757 44.0099C228.771 44.0099 231.557 39.7432 231.557 35.0815V30.4198Z" fill="#0A3161"/>
<path d="M264.506 20.6222H264.665C267.69 16.1185 271.749 13.1951 277.479 13.1951C283.925 13.1951 287.905 17.0667 287.905 24.9679V40.7704C287.905 42.9037 288.78 43.6938 292.362 43.6938H294.988V48.5136H273.499V43.6938H275.25C278.354 43.6938 279.23 42.9037 279.23 40.7704V25.521C279.23 20.0691 276.285 18.884 272.783 18.884C269.281 18.884 264.506 22.5975 264.506 27.2593V40.6914C264.506 42.8247 265.382 43.6148 267.451 43.6148H270.316V48.4346H248.668V43.6938H252.886C254.956 43.6938 255.831 42.9037 255.831 40.7704V23.0716C255.831 19.9111 254.956 19.121 251.135 19.121H248.668V14.3012H264.506V20.6222Z" fill="#0A3161"/>
<path d="M293.237 14.3012H314.567V19.121H311.383C310.11 19.121 309.234 19.5951 309.234 20.7012C309.234 21.1753 309.632 22.0444 309.871 22.7556L316.477 38.242H316.636L322.764 23.3877C323.162 22.5185 323.401 21.7284 323.401 20.8593C323.401 19.9111 322.366 19.121 321.013 19.121H317.83V14.3012H335.737V19.121C333.11 19.121 330.882 19.5951 329.688 22.4395L317.75 50.5679C313.691 60.1284 309.871 64 303.026 64C297.933 64 293.237 60.9185 293.237 55.1506C293.237 51.5951 295.227 48.7506 298.888 48.7506C301.514 48.7506 303.981 50.6469 303.981 53.3333C303.981 55.6247 302.39 57.521 300.4 57.521C299.843 57.521 299.047 57.442 298.49 57.442C299.286 58.8642 300.718 59.1803 302.071 59.1803C306.528 59.1803 308.598 56.8889 310.03 53.8074L312.497 48.4346L300.082 21.8864C299.206 19.9901 297.137 19.042 293.396 19.042V14.3012H293.237Z" fill="#0A3161"/>
<path d="M45.6832 0V19.9901H40.1916V16.6716C40.1916 8.9284 36.1327 5.37284 27.9352 5.37284V40.4543C27.9352 42.3506 28.6515 43.0617 30.9595 43.0617H36.5306V48.5136H9.07296V43.0617H14.6441C16.9521 43.0617 17.6684 42.3506 17.6684 40.4543V5.45185C9.4709 5.45185 5.41194 8.9284 5.41194 16.7506V20.0691H0V0H45.6832ZM63.8291 20.0691H63.9883C67.0126 16.1185 71.0715 13.1951 76.8018 13.1951C83.2484 13.1951 87.2278 17.2247 87.2278 23.4667V40.7704C87.2278 42.9037 88.1032 43.6938 90.1725 43.6938H94.3111V48.5136H72.8225V43.6938H75.608C77.6773 43.6938 78.5528 42.9037 78.5528 40.7704V24.0198C78.5528 20.3062 76.006 18.884 72.1062 18.884C68.286 18.884 63.8291 22.9136 63.8291 29.3136V40.6914C63.8291 42.8247 64.7046 43.6148 66.7738 43.6148H69.7186V48.4346H47.9912V43.6148H52.2093C54.2786 43.6148 55.1541 42.8247 55.1541 40.6914V7.74321C55.1541 5.60988 54.2786 4.81975 52.2093 4.81975H47.9912V0H63.8291V20.0691ZM103.304 32.237C103.066 37.9259 104.817 44.0889 111.741 44.0889C117.073 44.0889 119.699 41.4025 120.654 36.3457H126.783C125.828 44.721 120.734 49.6198 110.945 49.6198C99.4843 49.6198 93.5152 43.2198 93.5152 31.3679C93.5152 20.7012 100.439 13.1161 110.626 13.1161C122.724 13.1161 127.817 23.8617 127.021 32.237H103.304ZM116.993 27.4173C117.073 22.8346 115.561 18.2519 110.388 18.2519C105.374 18.2519 103.543 22.7556 103.304 27.4173H116.993Z" fill="#B31942"/>
</svg>
