<svg xmlns="http://www.w3.org/2000/svg" width="" height="" viewBox="0 0 256 222.7">
  <path fill="#B31942" d="M57.8 0v25.3h-6.9v-4.2c0-9.8-5.1-14.3-15.4-14.3v44.4c0 2.4.9 3.3 3.8 3.3h7v6.9H11.8v-6.9h7c2.9 0 3.8-.9 3.8-3.3V6.9c-10.3 0-15.4 4.4-15.4 14.3v4.2H.4V0h57.4zM80.6 25.4h.2c3.8-5 8.9-8.7 16.1-8.7 8.1 0 13.1 5.1 13.1 13v21.9c0 2.7 1.1 3.7 3.7 3.7h5.2v6.1h-27v-6.1h3.5c2.6 0 3.7-1 3.7-3.7V30.4c0-4.7-3.2-6.5-8.1-6.5-4.8 0-10.4 5.1-10.4 13.2v14.4c0 2.7 1.1 3.7 3.7 3.7H88v6.1H60.7v-6.1H66c2.6 0 3.7-1 3.7-3.7V9.8c0-2.7-1.1-3.7-3.7-3.7h-5.3V0h19.9v25.4zM130.2 40.8c-.3 7.2 1.9 15 10.6 15 6.7 0 10-3.4 11.2-9.8h7.7c-1.2 10.6-7.6 16.8-19.9 16.8-14.4 0-21.9-8.1-21.9-23.1 0-13.5 8.7-23.1 21.5-23.1 15.2 0 21.6 13.6 20.6 24.2h-29.8zm17.2-6.1c.1-5.8-1.8-11.6-8.3-11.6-6.3 0-8.6 5.7-8.9 11.6h17.2z"/>
  <path fill="#0A3161" d="M19.1 131.1c0 2.2 2.2 3.1 4.2 3.1H29v6.9H0v-6.9h5.5c3 0 4-.9 4-3.1V89.7c0-2.2-1.5-3.1-3.6-3.1H0v-6.9h29.1l12.5 40.1h.2l14.1-40.1h28v6.9h-6.2c-2.1 0-3.6.9-3.6 3.1v40.1c0 3 1.4 4.4 4 4.4h5.8v6.9H51.7v-6.9h6.1c2.5 0 4-1.3 4-3.1V89h-.2l-17.7 52.1h-7.7L19.3 89h-.2v42.1zM134.7 125v2.8c0 10.4-4.2 14.7-11.9 14.7-4.6 0-8.6-1.9-9.4-6.9-3.4 5.2-9.4 6.9-15.2 6.9-7.2 0-12.9-3.4-12.9-11.8 0-18 27.8-9.3 27.8-22.3 0-5.9-5-7-9.9-7-2.6 0-6.9.8-8.6 3.1 3.4-.5 6.1 1 6.1 4.8 0 4.2-2.9 5.5-6.5 5.5-4 0-6.7-3.1-6.7-6.9 0-9.4 11.3-11.5 18.6-11.5 12.5 0 17.9 5.6 17.9 13.4v22.7c0 2 .8 3.1 2.2 3.1 1.4 0 2.5-1.3 2.5-7V125h6zm-21.6-6.8-9.8 4.4c-2.7 1.2-5.6 2.7-5.6 7 0 3.9 1.8 5.8 5.6 5.8 6.3 0 9.8-5.4 9.8-11.3v-5.9z"/>
  <path fill="#0A3161" d="M154.5 105.8h.2c3.8-5.7 8.9-9.4 16.1-9.4 8.1 0 13.1 4.9 13.1 14.9v20c0 2.7 1.1 3.7 5.6 3.7h3.3v6.1h-27V135h2.2c3.9 0 5-1 5-3.7V112c0-6.9-3.7-8.4-8.1-8.4-4.4 0-10.4 4.7-10.4 10.6v17c0 2.7 1.1 3.7 3.7 3.7h3.6v6.1h-27.2v-6h5.3c2.6 0 3.7-1 3.7-3.7v-22.4c0-4-1.1-5-5.9-5h-3.1v-6.1h19.9v8z"/>
  <path fill="#0A3161" d="M190.6 97.8h26.8v6.1h-4c-1.6 0-2.7.6-2.7 2 0 .6.5 1.7.8 2.6l8.3 19.6h.2l7.7-18.8c.5-1.1.8-2.1.8-3.2 0-1.2-1.3-2.2-3-2.2h-4v-6.1H244v6.1c-3.3 0-6.1.6-7.6 4.2l-15 35.6c-5.1 12.1-9.9 17-18.5 17-6.4 0-12.3-3.9-12.3-11.2 0-4.5 2.5-8.1 7.1-8.1 3.3 0 6.4 2.4 6.4 5.8 0 2.9-2 5.3-4.5 5.3-.7 0-1.7-.1-2.4-.1 1 1.8 2.8 2.2 4.5 2.2 5.6 0 8.2-2.9 10-6.8l3.1-6.8-15.6-33.6c-1.1-2.4-3.7-3.6-8.4-3.6v-6z"/>
  <path fill="#B31942" d="M44.4 159.5h5.4v23.3h-6.7c-2.2-10.1-8.1-17.3-19.1-17.3-8.6 0-12.1 2.2-12.1 8.3 0 13.9 41.3 3.5 41.3 29.4 0 14.7-11.5 19.5-24.4 19.5-6.9 0-13.9-3-19.3-7.3l-2 5.5H1.2v-25.1h6.9c1.3 12.4 8.9 19.1 22 19.1 8.1 0 12-3.8 12-8.2 0-15.8-41.3-3.9-41.3-30.4 0-13.1 11.8-18.6 23-18.6 7 0 13 3.2 17.6 6.5l3-4.7zM53.4 183.6v-5.8c9.4-.6 11.9-9 12.7-17.5h5.7v17.2H84v6.1H72.1v27.3c0 1.9 1 3.1 3.5 3.1 2.9 0 4-1.6 4-5.3v-8.2h6.1v7.8c0 9.7-5.4 14-12.7 14-6.9 0-11.9-2.9-11.9-10.3v-28.3h-7.7zM138.5 204.7v2.8c0 10.4-4.2 14.7-11.9 14.7-4.6 0-8.6-1.9-9.4-6.9-3.4 5.2-9.4 6.9-15.2 6.9-7.2 0-12.9-3.4-12.9-11.8 0-18 27.8-9.3 27.8-22.3 0-5.9-5-7-9.9-7-2.6 0-6.9.8-8.6 3.1 3.4-.5 6.1 1 6.1 4.8 0 4.2-2.9 5.5-6.5 5.5-4 0-6.7-3.1-6.7-6.9 0-9.4 11.3-11.5 18.6-11.5 12.5 0 17.9 5.6 17.9 13.4v22.7c0 2 .8 3.1 2.2 3.1s2.5-1.3 2.5-7v-3.5h6zm-21.6-6.7-9.8 4.4c-2.7 1.2-5.6 2.7-5.6 7 0 3.9 1.8 5.8 5.6 5.8 6.3 0 9.8-5.4 9.8-11.3V198zM134.6 183.6v-5.8c9.4-.6 11.9-9 12.7-17.5h5.7v17.2h12.2v6.1h-11.9v27.3c0 1.9 1 3.1 3.5 3.1 2.9 0 4-1.6 4-5.3v-8.2h6.1v7.8c0 9.7-5.4 14-12.7 14-6.9 0-11.9-2.9-11.9-10.3v-28.3h-7.7zM182.3 200.3c-.3 7.2 1.9 15 10.6 15 6.7 0 10-3.4 11.2-9.8h7.7c-1.2 10.6-7.6 16.8-19.9 16.8-14.4 0-21.9-8.1-21.9-23.1 0-13.5 8.7-23.1 21.5-23.1 15.2 0 21.6 13.6 20.6 24.2h-29.8zm17.2-6.1c.1-5.8-1.8-11.6-8.3-11.6-6.3 0-8.6 5.7-8.9 11.6h17.2zM222.4 203.9c1.9 8.1 7.5 12.1 15.6 12.1 3.2 0 7.2-1.8 7.2-5.6 0-9.1-29.2-3.9-29.2-20.5 0-9.2 8.8-13.9 16.9-13.9 4.9 0 9.6 1.9 13.6 4.5l1.9-3.1h5.1V193h-6c-2.2-6.8-6.6-10.2-13.7-10.2-3.1 0-7 1.3-7 5 0 7.2 29.2 3.8 29.2 20.7 0 9.7-8.2 13.7-16.9 13.7-5.6 0-11.1-.9-15.5-4.7l-1.9 3.3h-6.1v-16.9h6.8z"/>
</svg>
