<svg width="100" height="100" fill="none" xmlns="http://www.w3.org/2000/svg"><path fill="#ECE7C1" d="M0 0h100v100H0z"/><path d="M25.869 12v8.634h-2.372v-1.433c0-3.345-1.753-4.88-5.294-4.88v15.152c0 .819.31 1.126 1.306 1.126h2.407v2.355h-11.86v-2.355h2.407c.996 0 1.306-.307 1.306-1.126V14.355c-3.54 0-5.294 1.501-5.294 4.88v1.433H6.137V12H25.87Zm7.837 8.668h.069c1.306-1.706 3.06-2.969 5.534-2.969 2.785 0 4.504 1.74 4.504 4.437v7.473c0 .922.378 1.263 1.271 1.263h1.788v2.082H37.59v-2.082h1.203c.894 0 1.272-.341 1.272-1.263v-7.235c0-1.604-1.1-2.218-2.785-2.218-1.65 0-3.575 1.74-3.575 4.505v4.914c0 .922.378 1.263 1.272 1.263h1.272v2.082h-9.384v-2.082h1.822c.893 0 1.271-.341 1.271-1.263v-14.23c0-.922-.378-1.263-1.271-1.263h-1.822V12h6.84v8.668Zm17.05 5.256c-.103 2.457.653 5.119 3.644 5.119 2.303 0 3.438-1.16 3.85-3.345h2.647c-.413 3.618-2.613 5.733-6.84 5.733-4.95 0-7.529-2.764-7.529-7.883 0-4.607 2.99-7.883 7.39-7.883 5.226 0 7.426 4.641 7.082 8.259H50.756Zm5.913-2.082c.034-1.98-.619-3.959-2.853-3.959-2.166 0-2.957 1.945-3.06 3.959h5.913Z" fill="#B31942"/><path d="M12.566 56.74c0 .75.756 1.058 1.443 1.058h1.96v2.355H6v-2.355h1.89c1.032 0 1.376-.307 1.376-1.058V42.612c0-.751-.516-1.058-1.238-1.058H6v-2.355h10.003L20.3 52.884h.069l4.847-13.685h9.625v2.355h-2.132c-.722 0-1.237.307-1.237 1.058v13.684c0 1.024.481 1.502 1.375 1.502h1.994v2.355H23.77v-2.355h2.098c.86 0 1.375-.444 1.375-1.058V42.373h-.069l-6.084 17.78h-2.647l-5.81-17.78h-.068V56.74Zm39.737-2.082v.956c0 3.549-1.444 5.016-4.09 5.016-1.582 0-2.957-.648-3.232-2.354-1.169 1.774-3.231 2.354-5.225 2.354-2.475 0-4.434-1.16-4.434-4.027 0-6.142 9.556-3.173 9.556-7.61 0-2.013-1.719-2.389-3.403-2.389-.894 0-2.372.273-2.956 1.058 1.169-.17 2.097.342 2.097 1.638 0 1.434-.997 1.877-2.235 1.877-1.375 0-2.303-1.058-2.303-2.354 0-3.208 3.884-3.925 6.394-3.925 4.297 0 6.153 1.911 6.153 4.573v7.747c0 .682.275 1.058.756 1.058s.86-.444.86-2.39v-1.228h2.062Zm-7.425-2.32-3.369 1.501c-.928.41-1.925.922-1.925 2.39 0 1.33.62 1.978 1.925 1.978 2.166 0 3.37-1.842 3.37-3.856v-2.013Z" fill="#0A3161"/><path d="M59.11 48.106h.068c1.306-1.945 3.06-3.208 5.535-3.208 2.784 0 4.503 1.672 4.503 5.085v6.825c0 .922.378 1.263 1.925 1.263h1.134v2.082h-9.281V58.07h.756c1.34 0 1.719-.341 1.719-1.263v-6.586c0-2.355-1.272-2.867-2.785-2.867-1.512 0-3.575 1.604-3.575 3.618v5.801c0 .922.378 1.263 1.272 1.263h1.238v2.081h-9.35v-2.047h1.822c.893 0 1.271-.341 1.271-1.263v-7.644c0-1.365-.378-1.706-2.028-1.706H52.27v-2.082h6.84v2.73Z" fill="#0A3161"/><path d="M71.519 45.376h9.212v2.082h-1.375c-.55 0-.928.204-.928.682 0 .205.172.58.275.887l2.853 6.69h.069l2.647-6.417c.172-.375.275-.716.275-1.092 0-.41-.447-.75-1.031-.75H82.14v-2.082h7.734v2.082c-1.134 0-2.097.204-2.612 1.433L82.106 61.04c-1.753 4.13-3.403 5.801-6.36 5.801-2.2 0-4.227-1.33-4.227-3.822 0-1.535.86-2.764 2.44-2.764 1.135 0 2.2.82 2.2 1.98 0 .99-.687 1.808-1.547 1.808-.24 0-.584-.034-.825-.034.344.614.963.75 1.547.75 1.925 0 2.82-.989 3.438-2.32l1.066-2.32-5.363-11.467c-.378-.819-1.272-1.229-2.887-1.229v-2.047h-.07Z" fill="#0A3161"/><path d="M21.262 66.432h1.857v7.951h-2.303c-.757-3.446-2.785-5.903-6.566-5.903-2.956 0-4.16.75-4.16 2.832 0 4.744 14.197 1.195 14.197 10.033 0 5.017-3.953 6.655-8.387 6.655-2.372 0-4.778-1.024-6.634-2.491l-.688 1.877H6.412V78.82h2.372c.447 4.232 3.06 6.518 7.563 6.518 2.784 0 4.125-1.297 4.125-2.798 0-5.392-14.197-1.331-14.197-10.375 0-4.47 4.056-6.347 7.906-6.347 2.406 0 4.469 1.092 6.05 2.218l1.031-1.604Zm3.094 8.224v-1.979c3.231-.205 4.09-3.071 4.366-5.972h1.96v5.87h4.193v2.081h-4.09v9.317c0 .648.343 1.058 1.202 1.058.997 0 1.375-.546 1.375-1.809v-2.798h2.097v2.662c0 3.31-1.856 4.778-4.365 4.778-2.372 0-4.091-.99-4.091-3.516v-9.657h-2.647v-.035Zm29.253 7.201v.956c0 3.549-1.444 5.016-4.09 5.016-1.582 0-2.957-.648-3.232-2.354-1.168 1.774-3.23 2.354-5.225 2.354-2.475 0-4.434-1.16-4.434-4.027 0-6.142 9.556-3.173 9.556-7.61 0-2.013-1.718-2.389-3.403-2.389-.894 0-2.372.273-2.956 1.058 1.169-.17 2.097.341 2.097 1.638 0 1.434-.997 1.877-2.235 1.877-1.375 0-2.303-1.058-2.303-2.354 0-3.208 3.885-3.925 6.394-3.925 4.297 0 6.153 1.911 6.153 4.573v7.747c0 .682.275 1.058.756 1.058.482 0 .86-.444.86-2.39v-1.194h2.062v-.034Zm-7.425-2.286-3.368 1.501c-.929.41-1.925.922-1.925 2.39 0 1.33.618 1.978 1.925 1.978 2.165 0 3.368-1.842 3.368-3.856v-2.013Zm6.085-4.915v-1.979c3.23-.205 4.09-3.071 4.365-5.972h1.96v5.87h4.193v2.081h-4.09v9.317c0 .648.343 1.058 1.203 1.058.997 0 1.375-.546 1.375-1.809v-2.798h2.097v2.662c0 3.31-1.856 4.778-4.366 4.778-2.372 0-4.09-.99-4.09-3.516v-9.657h-2.647v-.035Zm16.396 5.7c-.103 2.457.654 5.119 3.644 5.119 2.303 0 3.438-1.16 3.85-3.345h2.647c-.412 3.618-2.612 5.734-6.84 5.734-4.95 0-7.529-2.765-7.529-7.884 0-4.607 2.991-7.883 7.391-7.883 5.225 0 7.425 4.641 7.081 8.259H68.665Zm5.913-2.082c.034-1.98-.619-3.959-2.853-3.959-2.166 0-2.956 1.945-3.06 3.959h5.913Zm7.872 3.31c.653 2.764 2.578 4.13 5.362 4.13 1.1 0 2.475-.615 2.475-1.912 0-3.105-10.037-1.33-10.037-6.996 0-3.14 3.025-4.743 5.81-4.743 1.684 0 3.3.648 4.674 1.536l.653-1.058h1.754v5.323h-2.063c-.756-2.32-2.269-3.48-4.71-3.48-1.065 0-2.406.443-2.406 1.706 0 2.457 10.038 1.297 10.038 7.064 0 3.31-2.819 4.675-5.81 4.675-1.924 0-3.815-.307-5.328-1.604l-.653 1.127h-2.097v-5.768h2.338Z" fill="#B31942"/></svg>